<?xml version="1.0" standalone="no"?>
<!DOCTYPE svg PUBLIC "-//W3C//DTD SVG 20010904//EN"
 "http://www.w3.org/TR/2001/REC-SVG-20010904/DTD/svg10.dtd">
<svg version="1.0" xmlns="http://www.w3.org/2000/svg"
 width="512.000000pt" height="512.000000pt" viewBox="0 0 512.000000 512.000000"
 preserveAspectRatio="xMidYMid meet">
<metadata>
Created by potrace 1.14, written by Peter Selinger 2001-2017
</metadata>
<g transform="translate(0.000000,512.000000) scale(0.100000,-0.100000)"
fill="#000000" stroke="none">
<path d="M0 2560 l0 -2560 2560 0 2560 0 0 2560 0 2560 -2560 0 -2560 0 0
-2560z m2721 1671 c57 -26 151 -71 209 -98 58 -28 193 -92 300 -143 107 -51
269 -128 359 -171 90 -44 165 -79 167 -79 1 0 100 -47 219 -104 l216 -105 -3
-265 -3 -265 36 -18 c47 -23 99 -93 116 -156 19 -76 18 -516 -2 -584 -16 -53
-75 -129 -119 -152 l-26 -14 0 -264 0 -264 -147 -70 c-82 -39 -404 -192 -718
-341 -313 -149 -601 -286 -639 -305 l-69 -35 -161 78 c-89 42 -289 137 -446
212 -157 74 -424 201 -595 282 -170 81 -325 153 -343 161 l-32 14 0 245 c0
183 -3 249 -13 259 -9 11 -9 13 1 7 7 -4 12 -2 12 6 0 7 -20 25 -45 40 -45 28
-83 77 -103 137 -8 23 -12 124 -12 305 0 264 1 272 24 321 24 52 50 84 101
123 l30 24 5 260 5 259 55 29 c30 16 154 76 275 133 121 58 267 127 325 155
58 27 146 69 195 92 50 24 140 66 200 95 61 29 169 80 240 114 72 34 162 77
200 96 39 18 73 34 76 34 3 1 53 -21 110 -48z"/>
<path d="M2175 3954 c-236 -113 -564 -268 -727 -346 l-298 -141 0 -223 0 -224
25 0 25 0 0 188 c0 103 4 192 8 197 4 6 70 40 147 77 77 36 250 119 385 183
135 65 279 133 320 152 41 19 192 90 335 159 144 68 266 124 272 124 6 0 323
-148 704 -330 382 -181 697 -330 701 -330 5 0 8 6 8 14 0 7 -92 57 -217 116
-120 57 -449 213 -730 346 -282 134 -516 244 -520 244 -5 -1 -201 -93 -438
-206z"/>
<path d="M2022 3617 l-583 -271 43 -22 c43 -22 43 -22 81 -3 21 11 49 24 63
29 23 9 25 8 23 -18 -1 -15 4 -41 11 -58 15 -36 32 -45 299 -165 l175 -79 485
0 485 0 145 66 c233 107 321 153 321 169 0 8 5 15 10 15 6 0 10 7 10 16 0 8
-4 13 -9 9 -13 -7 -1 68 12 76 5 4 1 12 -9 18 -11 6 -14 11 -7 11 6 0 18 -6
25 -12 7 -7 22 -15 33 -16 11 -2 41 -15 68 -28 32 -17 56 -23 70 -18 24 8 41
-1 -368 189 -596 277 -788 365 -794 364 -3 0 -268 -122 -589 -272z m1070 20
c53 -25 100 -52 104 -59 6 -11 5 -11 -8 0 -13 10 -19 7 -42 -20 -14 -17 -27
-35 -27 -40 -1 -4 -2 -13 -3 -20 0 -6 -8 -13 -16 -15 -13 -4 -13 -3 0 7 13 10
13 11 0 7 -9 -2 -13 -12 -11 -23 12 -56 5 -124 -15 -151 -34 -46 -82 -73 -129
-73 -90 0 -153 52 -162 135 -9 76 10 110 105 186 6 5 12 31 12 57 0 27 6 54
13 61 9 11 9 12 0 7 -9 -5 -11 -2 -7 8 6 17 12 15 186 -67z m-790 -30 c-3 -40
-1 -48 23 -63 61 -40 85 -156 45 -222 -43 -71 -143 -94 -220 -51 -51 29 -74
72 -76 141 0 32 -7 64 -14 73 -7 8 -10 22 -6 30 4 11 2 14 -6 9 -6 -4 -25 -8
-42 -10 -20 -1 8 16 84 52 63 30 133 63 155 73 22 11 45 18 50 17 6 -2 8 -23
7 -49z"/>
<path d="M2896 3438 c-21 -30 -20 -44 4 -68 25 -25 36 -25 43 0 3 11 17 24 32
30 26 10 26 12 12 33 -21 32 -70 35 -91 5z"/>
<path d="M2190 3441 c-16 -30 -12 -56 11 -77 21 -18 21 -18 41 9 11 15 26 27
34 27 8 0 14 6 14 14 0 43 -80 64 -100 27z"/>
<path d="M3970 3184 l0 -165 28 3 27 3 0 148 c0 136 -2 150 -19 163 -11 8 -23
14 -28 14 -4 0 -8 -75 -8 -166z"/>
<path d="M1360 3156 c0 -122 4 -136 36 -136 24 0 24 2 24 90 0 50 2 90 4 90 2
0 92 -40 199 -90 179 -82 238 -103 237 -82 0 4 -44 27 -98 52 -53 24 -162 75
-242 112 -80 37 -148 68 -152 68 -5 0 -8 -47 -8 -104z"/>
<path d="M3640 3159 c-118 -55 -227 -105 -242 -111 -50 -18 -29 -27 55 -24 78
3 89 6 237 75 85 40 159 76 163 81 5 4 7 24 5 43 l-3 36 -215 -100z"/>
<path d="M1085 2906 c-37 -16 -82 -67 -93 -104 -4 -15 -7 -140 -7 -278 l0
-250 25 -37 c27 -39 46 -52 55 -37 4 6 1 10 -4 10 -6 0 -11 5 -11 12 0 9 3 9
12 0 47 -47 168 74 147 148 -10 36 -10 288 0 332 6 25 5 36 -1 32 -6 -4 -8 5
-3 24 5 25 1 37 -19 59 -14 15 -26 31 -26 35 0 12 3021 5 3045 -6 17 -8 16 -5
-5 19 -52 58 40 55 -1587 55 -1223 -1 -1504 -3 -1528 -14z m-38 -638 c-2 -13
-4 -3 -4 22 0 25 2 35 4 23 2 -13 2 -33 0 -45z"/>
<path d="M4087 2783 c-9 -2 -15 -9 -12 -14 4 -5 -8 -9 -24 -9 -28 0 -31 -3
-31 -30 l0 -30 -135 0 -135 0 0 -55 c0 -54 0 -55 30 -55 27 0 30 3 30 30 l0
30 93 0 94 0 -16 -80 -16 -80 -107 0 -108 0 0 -60 0 -60 30 0 c27 0 30 3 30
30 l0 31 93 -3 c84 -3 93 -5 102 -25 5 -13 13 -23 17 -23 5 0 8 -5 8 -11 0 -7
8 -18 18 -25 16 -12 15 -13 -5 -14 -19 0 -23 -6 -23 -30 l0 -30 -162 -2 -163
-3 0 -25 0 -25 192 -3 192 -2 3 46 c3 42 6 48 28 51 14 2 32 6 40 10 8 3 20 7
25 8 6 0 9 6 8 12 -1 6 7 19 17 28 11 10 20 28 21 39 1 19 2 19 8 -2 3 -13 7
52 8 145 0 98 -2 153 -7 133 l-7 -35 -2 38 c0 20 -5 37 -11 37 -5 0 -10 7 -10
15 0 28 -72 59 -113 48z"/>
<path d="M1800 2675 l0 -85 30 0 30 0 0 85 0 85 -30 0 -30 0 0 -85z"/>
<path d="M2070 2515 l0 -245 -30 0 c-27 0 -30 -3 -30 -30 l0 -30 60 0 60 0 0
275 0 275 -30 0 -30 0 0 -245z"/>
<path d="M2793 2749 c3 -9 37 -67 76 -130 45 -72 71 -105 71 -91 0 24 -90 174
-128 212 -15 15 -23 19 -19 9z"/>
<path d="M3050 2535 c0 -212 -1 -226 -20 -245 -11 -11 -27 -20 -35 -20 -23 0
-1 -38 30 -52 19 -9 30 -7 50 6 l25 16 0 260 0 260 -25 0 -25 0 0 -225z"/>
<path d="M1570 2704 c6 -14 10 -43 10 -65 0 -35 -3 -39 -25 -39 -21 0 -25 -5
-25 -30 0 -30 0 -30 56 -30 l56 0 -4 54 c-3 37 -13 68 -31 95 -31 47 -52 55
-37 15z"/>
<path d="M2530 2729 c0 -2 7 -22 15 -44 10 -29 14 -90 15 -227 l0 -188 -30 0
c-27 0 -30 -3 -30 -30 l0 -31 58 3 57 3 0 200 c0 199 0 200 -27 246 -23 38
-58 80 -58 68z"/>
<path d="M3520 2711 c5 -11 10 -40 10 -65 0 -42 -2 -46 -25 -46 -21 0 -25 -5
-25 -30 0 -30 1 -30 55 -30 l55 0 0 44 c0 53 -14 93 -42 124 -26 27 -42 29
-28 3z"/>
<path d="M1326 2684 c-13 -12 -16 -41 -16 -145 0 -116 2 -131 20 -149 11 -11
25 -20 30 -20 6 0 10 48 10 124 0 118 1 126 22 140 12 9 37 16 55 16 37 0 41
9 15 33 -25 22 -115 23 -136 1z"/>
<path d="M2312 2677 c-17 -18 -22 -36 -22 -80 0 -53 2 -57 24 -57 19 0 25 7
30 35 8 41 51 78 83 72 29 -5 29 4 0 31 -32 30 -87 29 -115 -1z"/>
<path d="M3276 2678 c-12 -17 -16 -50 -16 -141 0 -115 1 -118 28 -145 l27 -27
3 125 c2 113 4 127 23 143 12 9 36 17 55 17 37 0 43 10 18 34 -10 11 -34 16
-69 16 -44 0 -57 -4 -69 -22z"/>
<path d="M2778 2415 l5 -145 -32 0 c-28 0 -31 -3 -31 -30 0 -30 1 -30 55 -30
l55 0 0 136 c0 122 -2 140 -22 175 -12 22 -25 39 -28 39 -3 0 -4 -65 -2 -145z"/>
<path d="M1800 2380 l0 -110 -30 0 c-27 0 -30 -3 -30 -30 l0 -31 58 3 57 3 3
108 3 107 55 0 c54 0 55 0 52 28 -3 27 -4 27 -85 30 l-83 3 0 -111z"/>
<path d="M1609 2432 c-22 -3 -28 -10 -33 -38 -9 -45 -58 -100 -102 -114 -37
-13 -144 -9 -179 5 l-20 8 20 -23 c45 -52 142 -73 227 -50 71 20 125 106 116
186 -3 25 -7 29 -29 26z"/>
<path d="M3559 2432 c-22 -3 -28 -9 -33 -42 -7 -46 -51 -93 -102 -110 -36 -12
-141 -9 -179 4 -14 6 -10 -1 12 -23 40 -37 102 -55 171 -48 101 11 166 81 160
174 -3 45 -4 48 -29 45z"/>
<path d="M2290 2350 l0 -80 -30 0 c-27 0 -30 -3 -30 -30 0 -30 1 -30 55 -30
l55 0 0 85 0 85 55 0 c52 0 55 1 55 25 0 25 -1 25 -80 25 l-80 0 0 -80z"/>
<path d="M1150 1830 c0 -207 1 -220 19 -230 11 -5 23 -10 28 -10 4 0 9 91 9
203 l1 202 27 3 c20 3 26 9 26 28 0 22 -3 24 -55 24 l-55 0 0 -220z"/>
<path d="M1360 1910 l0 -140 33 -15 c17 -7 68 -30 112 -50 44 -21 145 -66 225
-102 80 -36 149 -68 154 -71 5 -3 6 0 3 5 -4 6 7 13 25 17 17 3 50 22 73 40
36 30 41 39 37 66 -8 52 17 117 59 154 88 80 210 48 254 -67 15 -41 16 -53 5
-92 -24 -87 -112 -140 -193 -115 -21 6 -41 10 -43 7 -9 -9 46 -49 92 -67 27
-10 44 -19 37 -20 -9 0 -8 -12 3 -44 11 -32 20 -43 30 -39 10 4 12 0 7 -13 -4
-11 -3 -15 4 -11 6 4 16 0 23 -9 7 -8 19 -13 27 -10 7 3 13 2 13 -2 0 -4 10
-7 23 -7 12 -1 42 -4 67 -7 42 -7 49 -4 88 29 l42 35 0 293 c0 225 -3 295 -12
299 -10 5 -10 7 0 12 6 3 12 19 12 35 l0 29 -600 0 -600 0 0 -140z m67 -152
c-3 -8 -6 -5 -6 6 -1 11 2 17 5 13 3 -3 4 -12 1 -19z"/>
<path d="M2670 1630 l0 -420 24 12 c20 8 26 20 28 52 l3 41 65 1 c36 1 65 3
65 4 0 1 12 3 27 5 53 7 127 48 139 78 14 33 20 109 8 101 -4 -2 -13 6 -19 18
-9 19 -9 21 2 8 8 -9 35 -16 70 -18 65 -4 117 16 149 57 19 23 21 24 30 8 6
-9 17 -17 26 -17 9 0 24 -7 33 -15 16 -14 26 -12 109 26 50 23 91 46 91 51 0
6 6 8 14 5 8 -3 20 1 26 9 7 8 9 14 4 14 -4 0 2 9 14 20 12 12 22 25 22 30 0
19 2 25 11 36 5 6 7 18 4 26 -5 12 5 16 44 20 92 9 162 96 148 183 -4 25 -2
35 6 34 35 -4 47 2 47 26 0 24 -3 25 -57 25 l-58 0 3 -47 c7 -124 -122 -202
-237 -143 -57 28 -85 79 -79 141 l5 49 -383 0 -384 0 0 -420z m457 364 c18 -5
20 -10 12 -31 -16 -44 -10 -81 20 -115 101 -117 35 -278 -115 -278 -145 0
-212 167 -110 272 38 39 51 82 37 121 -9 23 -8 26 17 30 44 7 115 7 139 1z"/>
<path d="M3003 1754 c-15 -24 -15 -29 -2 -53 19 -33 45 -39 52 -11 3 12 15 24
26 27 12 3 21 13 21 22 0 46 -69 57 -97 15z"/>
<path d="M3545 2026 c-18 -27 -7 -69 21 -80 16 -6 33 7 34 26 0 4 11 13 25 20
24 13 24 15 9 36 -21 30 -69 30 -89 -2z"/>
<path d="M3970 1882 c0 -149 -2 -171 -17 -184 -10 -8 -63 -35 -118 -60 -55
-26 -138 -64 -185 -86 -1018 -473 -1016 -472 -1037 -472 -16 0 -77 28 -658
298 -159 74 -314 146 -344 159 -30 14 -110 51 -178 83 -79 38 -123 54 -123 46
0 -8 6 -18 13 -24 6 -5 237 -114 512 -242 275 -128 572 -265 659 -306 88 -41
165 -74 172 -74 12 0 198 84 643 292 119 55 275 127 346 160 288 133 354 167
364 186 7 13 11 85 11 181 l0 161 25 0 c20 0 25 5 25 25 0 24 -3 25 -55 25
l-55 0 0 -168z"/>
<path d="M2147 1732 c-21 -23 -22 -56 -1 -76 21 -22 41 -20 47 5 3 11 15 23
26 26 26 7 27 25 3 46 -24 22 -55 21 -75 -1z"/>
</g>
</svg>
